/* XPM */
static char * exit_01_xpm[] = {
"50 50 27 1",
" 	c #70A853",
".	c #131313",
"+	c #492818",
"@	c #3B1F14",
"#	c #633424",
"$	c #83432B",
"%	c #585852",
"&	c #633A21",
"*	c #21201C",
"=	c #25130D",
"-	c #885232",
";	c #B56B39",
">	c #868684",
",	c #200D06",
"'	c #2A211D",
")	c #56833F",
"!	c #72734D",
"~	c #A89078",
"{	c #BDAAA5",
"]	c #090504",
"^	c #424B3A",
"/	c #635C58",
"(	c #529740",
"_	c #E10C0C",
":	c #38180D",
"<	c #1A0B07",
"[	c #3F7630",
"                                                  ",
"                                                  ",
"                                                  ",
"                                                  ",
"                                                  ",
"                                                  ",
"                                                  ",
"                                                  ",
"                                                  ",
"                                                  ",
"           ...                      ...           ",
"          .+++......................+++.          ",
"          .+++@#########$$$$$$$####@+++.          ",
"          .+%+@####$$$$$$$$$$$$$###@+%+.          ",
"          .&*&@######$$$$$#########@&*&.          ",
"          .&&&===@@@@@######@@@@@===&&&.          ",
"          .-&-@######$$$$$$$$######@-&-.          ",
"          .-&-@##$$$$$$$$$$$$$$####@-&-.          ",
"          .;>;@#$$$$$$$$$$$$$$$$$##@;>;.          ",
"          .;%;@####$$$$$$$$$$$$$###@;%;.          ",
"          .;-;======@@@@,,@@@@======;-;.          ",
"          .;-;=@@@@##@@,;;,@####@@@=;-;.          ",
"          .;-;=@@###@,,-;-&,,@####@=;-;.          ",
"          .-&-=@@@@@,-;&--&&&,@@@@@=-&-.          ",
"          .-%-==@@@,-;''''''&&,@@@@=-%-.)         ",
"          .-*-====,&-'!~~~~!'-&,====-*-.))        ",
"          .&&&=@@,&-'{{~~~~~!]-&,@==&&&.))        ",
"          .&+&==@,&'^{{~~~~~~^]&,===&+&.))        ",
"          .+++===-&]/~~~~~~~~^]&-===+++.))        ",
"         (.+++&;;&+]/]]]~~~~~/]+&;;&+++.))        ",
"          .--;;;-&+]~_]]//_]]~]+&-;;;;-.))        ",
"          .+++&++::]{]]]~~]]]{]::+&&&++.))        ",
"          ...::::..]{{~~~~~~{{]...:::...))        ",
"          .+++&&+::+]]]~~~~]]]+::++&&++.))        ",
"          ..::<<<<<:+]^~~^~^]+:<<<<<.:..)[        ",
"          .+&+====<<:]!{{!{!]:<<====&++.[)(       ",
"          .&&+<=====<:++++++:<=====<&+&.)[        ",
"          .&&+.<<==<<<<<<<<<<<<<<<<.&&&.))        ",
"          .+&+.+&---&&--&&&&---&&&+.&+&.))        ",
"          .+++.::++::::+++++++++:::.+++.)         ",
"           ............................)          ",
"            )))))))))))))))))))))))))))           ",
"                                                  ",
"                                                  ",
"                                                  ",
"                                                  ",
"                                                  ",
"                                                  ",
"                                                  ",
"                                                  "};
