/* XPM */
static char * exit_open_xpm[] = {
"50 50 24 1",
" 	c #70A853",
".	c #131313",
"+	c #635C58",
"@	c #A89078",
"#	c #2A211D",
"$	c #885232",
"%	c #B56B39",
"&	c #25130D",
"*	c #3B1F14",
"=	c #633424",
"-	c #868684",
";	c #585852",
">	c #492818",
",	c #38180D",
"'	c #90281D",
")	c #FEE678",
"!	c #FFC640",
"~	c #561811",
"{	c #56833F",
"]	c #D46D2A",
"^	c #529740",
"/	c #633A21",
"(	c #1A0B07",
"_	c #3F7630",
"                                                  ",
"                                                  ",
"                                                  ",
"                                                  ",
"                     .+@@+++.                     ",
"                    .+@@@@@++.                    ",
"             .......##########.......             ",
"            .$%%%%$%$$$$%$$%%%$%%%%%$.            ",
"           .$$$$$$$$$$$$$$$$$$$$$$$$$$.           ",
"          .$$&**********************&$$.          ",
"          .$%*======================*$$.          ",
"          .%%&*****==========*******&%$.          ",
"          .%%**====================**%%.          ",
"          .%%&**=================***&%%.          ",
"          .%$&&&&&***************&&&&%%.          ",
"          .$%&&********************&&%$.          ",
"          .%$&&&&&&&&&&&&&&&&&&&&&&&&$%.          ",
"          .$$&&&&&&&&&&&&&&&&&&&&&&&&%$.          ",
"          .$$$$--;>$$$$$$$$$$$$$--;>$$$.          ",
"          .,,>,--;,,,>>>>>>>>>>,--;,,,,.          ",
"          .>$$$$$$$$$$$$%%%%%%$$$$$$$$>.          ",
"          .$$$$$%$$%%%$$$$$%%%%%%$%$$$$.          ",
"          .$%&&&&&&&&&&&&&&&&&&&&&&&&$%.          ",
"          .%%&***********'''********&%%.          ",
"          .%%&&&&&&&*****')!''~~&&&&&%%.{         ",
"          .%%&***~~~**''']!!))]]~~~&&%%.{{        ",
"          .%%&&*~]!~~']!!]]]))]]'''~&$%.{{        ",
"          .%%&&~~]]']]]!!!'']]!!]'))&%$.{{        ",
"          .%$*~)'~~']!!'!!')!]!!]'))*$%.{{        ",
"         ^.$%*!]~''~'!!]'']!!!]]'!!]*$$.{{        ",
"          .%$&]~')]''']]'!!]!!]]'!!]&$$.{{        ",
"          .$$$$$%%%%%%$$$$$$$$%%%%$$$$$.{{        ",
"          .$$%%%%%$/,,,,,,,,,,/$%%%$%%$.{{        ",
"          .>>>//>,,>,,,,,,,,,,>,,>>//>>.{{        ",
"          ..,,(((((,>,,,,,,,,>,(((((.,..{_        ",
"          .>/>&&&&((,,,,,,,,,,((&&&&/>>._{^       ",
"          .//>(&&&&&(,>>>>>>,(&&&&&(/>/.{_        ",
"          .//>.((&&((((((((((((((((.///.{{        ",
"          .>/>.>/$$$//$$////$$$///>./>/.{{        ",
"          .>>>.,,>>,,,,>>>>>>>>>,,,.>>>.{         ",
"           ............................{          ",
"            {{{{{{{{{{{{{{{{{{{{{{{{{{{           ",
"                                                  ",
"                                                  ",
"                                                  ",
"                                                  ",
"                                                  ",
"                                                  ",
"                                                  ",
"                                                  "};
