/* XPM */
static char * exit_03_xpm[] = {
"50 50 28 1",
" 	c #70A853",
".	c #090504",
"+	c #131313",
"@	c #BDAAA5",
"#	c #A89078",
"$	c #72734D",
"%	c #885232",
"&	c #424B3A",
"*	c #25130D",
"=	c #635C58",
"-	c #3B1F14",
";	c #1C171D",
">	c #B56B39",
",	c #633A21",
"'	c #38180D",
")	c #492818",
"!	c #633424",
"~	c #868684",
"{	c #585852",
"]	c #90281D",
"^	c #56833F",
"/	c #FEE678",
"(	c #FFC640",
"_	c #561811",
":	c #D46D2A",
"<	c #529740",
"[	c #1A0B07",
"}	c #3F7630",
"                                                  ",
"                                                  ",
"                                                  ",
"                                                  ",
"                                                  ",
"                      ......                      ",
"                   ++.@@###$.++                   ",
"                  +%.$######&.%+                  ",
"           +++++++%.&########&.%+++++++           ",
"          +%%%.**.%.=#..==..#&.%---*%%%;          ",
"          +>>>.*..,.@########@.,*--*>>>+          ",
"          +,%%....,.@@######@@.,****%%,+          ",
"          +,,,,%%,%'...####...',%%%,,,,+          ",
"          +++++++++++.$@@$@$.+++++++++++          ",
"          +)))*******........*******)))+          ",
"          +),,***----------------***),,+          ",
"          +,,,*-!!!!!!!!!!!!!!!!!-**,,,+          ",
"          +,,%%********************%%,,+          ",
"          +%%%%%%%%%%%%%%%%%%%%%%%%%%%%+          ",
"          +'))'~~{'''))))))))))'~~{''''+          ",
"          +)%%%%%%%%%%%%>>>>>>%%%%%%%%)+          ",
"          +%%%%%>%%>>>%%%%%>>>>>>%>%%%%+          ",
"          +%>************************%>+          ",
"          +>>*-----------]]]--------*>>+^         ",
"          +>>*******-----]/(]]__*****>>+^^        ",
"          +>>*---___--]]]:((//::___**>>+^^        ",
"          +>>**-_:(__]:((::://::]]]_*%>+^^        ",
"          +>>**__::]:::(((]]::((:]//*>%+^^        ",
"          +>%-_/]__]:((]((]/(:((:]//-%>+^^        ",
"         <+%>-(:_]]_]((:]]:(((::]((:-%%+^^        ",
"          +>%*:_]/:]]]::]((:((::]((:*%%+^^        ",
"          +%%%%%>>>>>>%%%%%%%%>>>>%%%%%+^^        ",
"          +%%>>>>>%,'''''''''',%>>>%>>%+^^        ",
"          +))),,)'')'''''''''')'')),,))+^^        ",
"          ++''[[[[[')'''''''')'[[[[[+'++^}        ",
"          +),)****[[''''''''''[[****,))+}^<       ",
"          +,,)[*****['))))))'[*****[,),+^}        ",
"          +,,)+[[**[[[[[[[[[[[[[[[[+,,,+^^        ",
"          +),)+),%%%,,%%,,,,%%%,,,)+,),+^^        ",
"          +)))+''))'''')))))))))'''+)))+^         ",
"           ++++++++++++++++++++++++++++^          ",
"            ^^^^^^^^^^^^^^^^^^^^^^^^^^^           ",
"                                                  ",
"                                                  ",
"                                                  ",
"                                                  ",
"                                                  ",
"                                                  ",
"                                                  ",
"                                                  "};
