/* XPM */
static char * key_xpm[] = {
"50 50 6 1",
" 	c #70A853",
".	c #969696",
"+	c #529740",
"@	c #2E242F",
"#	c #FBFF86",
"$	c #F9C22B",
"                                                  ",
"                                                  ",
"                                                  ",
"                                                  ",
"                                                  ",
"                                                  ",
"                                                  ",
"                                                  ",
"                                                  ",
"                                                  ",
"                                    ...           ",
"                                    +++           ",
"                                                  ",
"                                                  ",
"                                                  ",
"                                                  ",
"                                                  ",
"                                                  ",
"                                                  ",
"                                                  ",
"                                                  ",
"                    @@@@                          ",
"                   @####@                         ",
"                  @#$$$$#@@@@@@@@@                ",
"                  @#$@@$$#########@               ",
"                  @#$@@$$$$$$$$$$$@               ",
"                  @#$$$$$@@@$@$@$@@               ",
"                  @@$$$$@@@@@@$@$@@               ",
"          +       @@@@@@@   @@@@@@                ",
"         + +        @@@@                          ",
"          +                                       ",
"                                                  ",
"                                                  ",
"                                                  ",
"                                         +        ",
"                                        + +       ",
"                                         +        ",
"                                                  ",
"                                                  ",
"                                                  ",
"                                                  ",
"                                                  ",
"                                                  ",
"                                                  ",
"                                                  ",
"                                                  ",
"                                                  ",
"                                                  ",
"                                                  ",
"                                                  "};
