/* XPM */
static char * enemy_xpm[] = {
"50 50 28 1",
" 	c #70A853",
".	c #BB7547",
"+	c #DAE0EA",
"@	c #71413B",
"#	c #B3B9D1",
"$	c #969696",
"%	c #5B3138",
"&	c #529740",
"*	c #A4AAC0",
"=	c #969FBE",
"-	c #422433",
";	c #1A7A3E",
">	c #8B93AF",
",	c #59C135",
"'	c #14A02E",
")	c #122020",
"!	c #78809A",
"~	c #24523B",
"{	c #6D758D",
"]	c #5E6A7B",
"^	c #4A5462",
"/	c #8E5252",
"(	c #E9B5A3",
"_	c #FA6A0A",
":	c #F9A31B",
"<	c #FFD541",
"[	c #BA756A",
"}	c #221C1A",
"                                                  ",
"                                                  ",
"                                                  ",
"                                                  ",
"                                                  ",
"                                                  ",
"                                                  ",
"                                                  ",
"                                                  ",
"                      ......+                     ",
"                     .@@@@@+#       $$$           ",
"                    .@@%%%%##+      &&&           ",
"                    @@%%%%%#*#                    ",
"                   .@%%%%%%#=#.                   ",
"                   @%--%%%%*=*@                   ",
"                  .%-;;-%%-*=*%.                  ",
"                  @-;;;;--;=>=-@                  ",
"                ,,@-;;;;;;;=>=-@,,                ",
"              ,,''%-,))),,)>>>-%'',,              ",
"              '';;%-,,)),,)>!>-%;;''              ",
"              ;;~~%-;''';;'!{!-%~~;;              ",
"                   -;''''''{]{-                   ",
"                     ;;'''']^]                    ",
"                   ./^(;;;;^^^.                   ",
"                  >{{%%(((_:<:_>                  ",
"                  ;;;@@%[[;;;;~~                  ",
"                  ''',,,,,'''';;                  ",
"                  ;''''''''''';;                  ",
"          &        ;'''''''''';;;                 ",
"         & &         --%%%%~~~;;;                 ",
"          &          [[----~~~~;~                 ",
"                     (([[[[~~~~~                  ",
"                     /%%%%%%/                     ",
"                    /%%%%%%%%/                    ",
"                    /%%%--%%%/           &        ",
"                    %%%----%%%          & &       ",
"                     %--  --%            &        ",
"                     ---  ---                     ",
"                     }}}  }}}                     ",
"                    ))))  ))))                    ",
"                                                  ",
"                                                  ",
"                                                  ",
"                                                  ",
"                                                  ",
"                                                  ",
"                                                  ",
"                                                  ",
"                                                  ",
"                                                  "};
