/* XPM */
static char * player_xpm[] = {
"50 50 18 1",
" 	c #70A853",
".	c #453F60",
"+	c #63778F",
"@	c #ADC3CC",
"#	c #2C253E",
"$	c #969696",
"%	c #529740",
"&	c #9B3C1B",
"*	c #DC6831",
"=	c #5A2818",
"-	c #F8D098",
";	c #885038",
">	c #D08860",
",	c #181818",
"'	c #F8F0E0",
")	c #945816",
"!	c #CD9217",
"~	c #E1CD4E",
"                                                  ",
"                                                  ",
"                                                  ",
"                                                  ",
"                                                  ",
"                                                  ",
"                                                  ",
"                                                  ",
"                          .....                   ",
"                        ..+@@+.#                  ",
"                       #+@@@+.##    $$$           ",
"                      #.@@@@+#      %%%           ",
"                     ##+++++..#                   ",
"                     #.&*&&*&.#                   ",
"                    #=&**&**&==#                  ",
"                  ##=&*+@@@+.&=##                 ",
"                  #.+@@@@@@@+.++#                 ",
"                   #.+@@@@++.#..#                 ",
"                   -;##..####;##                  ",
"                   -;>;;>>;;>;>                   ",
"                   >,;',>>,';,;                   ",
"                    ,;',--,';,                    ",
"                     ,>--->>,                     ",
"                    )=,>-->,=)                    ",
"                   )!&=;;;;=&!)                   ",
"                   =!!&====&!!=                   ",
"                  &*=)!&&&&!)=*&                  ",
"                  &*&,)!~~!),&*&                  ",
"          %       &&=,).!!.),=&&                  ",
"         % %      ;>>,))~~)),>>;                  ",
"          %       ,--;)#!!#);--,                  ",
"                  ,->;)!!!!);>-,                  ",
"                  ,>;,###,##,;>,                  ",
"                   ,,,#..,..,,,                   ",
"                     )))),)))            %        ",
"                     )~~!)!!)           % %       ",
"                    )!~~!)!!,            %        ",
"                    )!!!!)!~!,                    ",
"                   )!~~!!)~~~!,                   ",
"                  ,!~~~),,,,,,,                   ",
"                  ,,,,,,,                         ",
"                                                  ",
"                                                  ",
"                                                  ",
"                                                  ",
"                                                  ",
"                                                  ",
"                                                  ",
"                                                  ",
"                                                  "};
