/* XPM */
static char * wall_xpm[] = {
"50 50 12 1",
" 	c #70A853",
".	c #563A3F",
"+	c #94785C",
"@	c #529740",
"#	c #201729",
"$	c #79584F",
"%	c #2E6D31",
"&	c #5A8646",
"*	c #1F492B",
"=	c #102619",
"-	c #65954C",
";	c #4A6B3C",
"                                                  ",
"                                                  ",
"        ..              ..              ..        ",
"       .++.            .++.@           .++.       ",
"      .++++#          .++++#@         .++++#      ",
"      .+$$+#          .+$$+#          .+$$+#      ",
"      .$$$$#         @.$$$$#          .$$$$#      ",
"      .$$$$#...........$$$$#...........$$$$#      ",
"      .$$$.#$$$$$$$$$$.$$$.#$$$$$$$$$$.$$$.#      ",
"      .$.$.#...........$.$.#...........$.$.#      ",
"      .$...###########.$...###########.$...#      ",
"     @.$...#          .$...#          .$...#      ",
"      ..#..#          ..#..%%         ..#..#      ",
"      .#####&&&&&&&&&&.###%@%%&&&&&&&&.#####&     ",
"        &&&&&&&&&%%%%%%%%%@@%%&&&%%%%&&&&&&&&&    ",
"          &&&&&%%@@@@@@%@@@@%%% %@@%     &&&&&&   ",
"            %%%@@@@@@@@@@@@%%%%%@@@%%             ",
"           %% %%@@@@@@@@@@%%%%@@@%%%%%            ",
"           %  %@@@@@@@%%@%%%%%@@%%%%%%%           ",
"            %%@@@@@@@%%%%%%%%%@%%%%%%%%           ",
"           %%@@@@@@@@%%%%%%%%%%%%%%*%%%%          ",
"           %@@@@@@@@@%%%@@@@@@%%%%**%%%%          ",
"           %@@@@@%%%%%%@@@@@@@**%%*****           ",
"          %%@@@%%%%%@@@@@@@@@@***%******          ",
"          %%%%%%%%%@@@@@@@@%%***********          ",
"          %%%%%%%%@@@@@@@@%************           ",
"           %%%%%@@@@@@@@%%************=           ",
"           %%%%%@@@%%@@%%************==           ",
"           %%%%%%%%%**%%******==****==            ",
"            =%******=********====***==            ",
"            ==*****===**==**====**====            ",
"            ===**====****============             ",
"             ========*===============             ",
"           --=======================--            ",
"        ..----==========..========----  ..        ",
"       .++.-----=======.++.====------- .++.       ",
"      .++++#----------.++++#--------- .++++#      ",
"      .+$$+# ---------.+$$+#---       .+$$+#      ",
"      .$$$$#          .$$$$#          .$$$$#      ",
"      .$$$$#...........$$$$#...........$$$$#      ",
"      .$$$.#$$$$$$$$$$.$$$.#$$$$$$$$$$.$$$.#      ",
"      .$.$.#...........$.$.#...........$.$.#      ",
"      .$...###########.$...###########.$...#      ",
"      .$...#          .$...#          .$...#      ",
"      ..#..#          ..#..#          ..#..#      ",
"      .#####&&&&&&&&&&.#####;&&&&&&&&&.#####&     ",
"        &&&&&&&&&&&&&&&&;;;;;;&&&&&&&&&&&&&&&&    ",
"          &&&&&          &;;;;;          &&&&&&   ",
"                                                  ",
"                                                  "};
